<svg xmlns="http://www.w3.org/2000/svg" xmlns:xlink="http://www.w3.org/1999/xlink" width="1366" zoomAndPan="magnify" viewBox="0 0 1024.5 576" height="768" preserveAspectRatio="xMidYMid meet" version="1.2"><defs><filter x="0%" y="0%" width="100%" filterUnits="objectBoundingBox" id="558ab7a7a4" height="100%"><feColorMatrix values="0 0 0 0 1 0 0 0 0 1 0 0 0 0 1 0 0 0 1 0" type="matrix" in="SourceGraphic"/></filter><clipPath id="63d33e6a80"><path d="M 0.351562 0.875 L 63.867188 0.875 L 63.867188 63.578125 L 0.351562 63.578125 Z M 0.351562 0.875 "/></clipPath><clipPath id="bfb668be2c"><path d="M 0.351562 0.875 L 63.867188 0.875 L 63.867188 63.578125 L 0.351562 63.578125 Z M 0.351562 0.875 "/></clipPath><clipPath id="eee12963de"><rect x="0" width="64" y="0" height="64"/></clipPath><clipPath id="cedc0cb797"><rect x="0" width="65" y="0" height="64"/></clipPath><clipPath id="697caef2e9"><path d="M 0.363281 0.183594 L 144.800781 0.183594 L 144.800781 142.769531 L 0.363281 142.769531 Z M 0.363281 0.183594 "/></clipPath><clipPath id="1d41bf48ac"><path d="M 0.363281 0.183594 L 144.800781 0.183594 L 144.800781 142.769531 L 0.363281 142.769531 Z M 0.363281 0.183594 "/></clipPath><clipPath id="c9065f7475"><rect x="0" width="145" y="0" height="143"/></clipPath><clipPath id="a288948c09"><rect x="0" width="146" y="0" height="143"/></clipPath><clipPath id="4a1943d930"><path d="M 690 484 L 816 484 L 816 575.859375 L 690 575.859375 Z M 690 484 "/></clipPath><clipPath id="b580bf5724"><path d="M 0.972656 0.582031 L 124.851562 0.582031 L 124.851562 91.859375 L 0.972656 91.859375 Z M 0.972656 0.582031 "/></clipPath><clipPath id="4e4b1c6123"><path d="M 0.972656 0.582031 L 124.851562 0.582031 L 124.851562 91.859375 L 0.972656 91.859375 Z M 0.972656 0.582031 "/></clipPath><clipPath id="e67a4c5c0d"><rect x="0" width="125" y="0" height="92"/></clipPath><clipPath id="dca7216e54"><rect x="0" width="126" y="0" height="92"/></clipPath><clipPath id="e7f7668481"><path d="M 778 0.140625 L 1024 0.140625 L 1024 254 L 778 254 Z M 778 0.140625 "/></clipPath><clipPath id="9462ab682e"><path d="M 0.96875 0.140625 L 246 0.140625 L 246 253.03125 L 0.96875 253.03125 Z M 0.96875 0.140625 "/></clipPath><clipPath id="4467aaedaf"><path d="M 0.96875 0.140625 L 246 0.140625 L 246 253.03125 L 0.96875 253.03125 Z M 0.96875 0.140625 "/></clipPath><clipPath id="132d71d65f"><rect x="0" width="246" y="0" height="254"/></clipPath><clipPath id="3ded7febf7"><rect x="0" width="246" y="0" height="254"/></clipPath><clipPath id="ad46a1e983"><path d="M 0 0.253906 L 203.203125 0.253906 L 203.203125 287.777344 L 0 287.777344 Z M 0 0.253906 "/></clipPath><clipPath id="37648d9e10"><path d="M 0 0.253906 L 203 0.253906 L 203 287.777344 L 0 287.777344 Z M 0 0.253906 "/></clipPath><clipPath id="6b2664a68c"><rect x="0" width="204" y="0" height="288"/></clipPath><clipPath id="88d604e227"><rect x="0" width="205" y="0" height="288"/></clipPath><clipPath id="08c4d45a15"><path d="M 101 493 L 270 493 L 270 575.859375 L 101 575.859375 Z M 101 493 "/></clipPath><clipPath id="7fd892520d"><path d="M 0.550781 0.234375 L 167.949219 0.234375 L 167.949219 82.859375 L 0.550781 82.859375 Z M 0.550781 0.234375 "/></clipPath><clipPath id="2bf6103df8"><path d="M 0.550781 0.234375 L 167.949219 0.234375 L 167.949219 82.859375 L 0.550781 82.859375 Z M 0.550781 0.234375 "/></clipPath><clipPath id="13fbf6bca6"><rect x="0" width="168" y="0" height="83"/></clipPath><clipPath id="fa270c028c"><rect x="0" width="169" y="0" height="83"/></clipPath><clipPath id="133977a405"><path d="M 1.082031 1.019531 L 59.933594 1.019531 L 59.933594 59.109375 L 1.082031 59.109375 Z M 1.082031 1.019531 "/></clipPath><clipPath id="984b9980b6"><path d="M 0.0820312 0.0195312 L 58.933594 0.0195312 L 58.933594 58.109375 L 0.0820312 58.109375 Z M 0.0820312 0.0195312 "/></clipPath><clipPath id="2d6597ff98"><rect x="0" width="59" y="0" height="59"/></clipPath><clipPath id="9f84c5ecb6"><rect x="0" width="61" y="0" height="60"/></clipPath><clipPath id="b8b0a0d4a2"><path d="M 0.933594 0.917969 L 59.78125 0.917969 L 59.78125 59.011719 L 0.933594 59.011719 Z M 0.933594 0.917969 "/></clipPath><clipPath id="bd25079c28"><path d="M 0.933594 0.917969 L 59.78125 0.917969 L 59.78125 59.011719 L 0.933594 59.011719 Z M 0.933594 0.917969 "/></clipPath><clipPath id="01de08657d"><rect x="0" width="60" y="0" height="60"/></clipPath><clipPath id="0773f9f815"><rect x="0" width="60" y="0" height="60"/></clipPath><clipPath id="b0880169cd"><path d="M 457 0.140625 L 562 0.140625 L 562 79 L 457 79 Z M 457 0.140625 "/></clipPath><clipPath id="4887dd23d0"><path d="M 0.300781 0.140625 L 103.582031 0.140625 L 103.582031 78.367188 L 0.300781 78.367188 Z M 0.300781 0.140625 "/></clipPath><clipPath id="a6e68b9e06"><path d="M 0.300781 0.140625 L 103.582031 0.140625 L 103.582031 78.367188 L 0.300781 78.367188 Z M 0.300781 0.140625 "/></clipPath><clipPath id="5b4c6673d6"><rect x="0" width="104" y="0" height="79"/></clipPath><clipPath id="e2752bf411"><rect x="0" width="105" y="0" height="79"/></clipPath></defs><g id="8b821c4c66"><g mask="url(#76b1dd38a6)" transform="matrix(1,0,0,1,917,472)"><g clip-path="url(#cedc0cb797)"><g clip-rule="nonzero" clip-path="url(#63d33e6a80)"><g transform="matrix(1,0,0,1,0,-0.000000000000056843)"><g id="1500c0b3aa" clip-path="url(#eee12963de)"><g clip-rule="nonzero" clip-path="url(#bfb668be2c)"><path style=" stroke:none;fill-rule:nonzero;fill:#3c4862;fill-opacity:1;" d="M 0.351562 0.875 L 63.789062 0.875 L 63.789062 63.578125 L 0.351562 63.578125 Z M 0.351562 0.875 "/></g></g></g></g></g><mask id="76b1dd38a6"><g filter="url(#558ab7a7a4)"><rect x="0" width="1024.5" y="0" height="576" style="fill:#000000;fill-opacity:0.1;stroke:none;"/></g></mask></g><g mask="url(#62dcbd53f0)" transform="matrix(1,0,0,1,488,268)"><g clip-path="url(#a288948c09)"><g clip-rule="nonzero" clip-path="url(#697caef2e9)"><g transform="matrix(1,0,0,1,0,-0.000000000000056843)"><g id="b63e96577d" clip-path="url(#c9065f7475)"><g clip-rule="nonzero" clip-path="url(#1d41bf48ac)"><path style=" stroke:none;fill-rule:nonzero;fill:#3c4862;fill-opacity:1;" d="M 0.363281 0.183594 L 144.617188 0.183594 L 144.617188 142.769531 L 0.363281 142.769531 Z M 0.363281 0.183594 "/></g></g></g></g></g><mask id="62dcbd53f0"><g filter="url(#558ab7a7a4)"><rect x="0" width="1024.5" y="0" height="576" style="fill:#000000;fill-opacity:0.1;stroke:none;"/></g></mask></g><g clip-rule="nonzero" clip-path="url(#4a1943d930)"><g mask="url(#c13c80a8bd)" transform="matrix(1,0,0,1,690,484)"><g clip-path="url(#dca7216e54)"><g clip-rule="nonzero" clip-path="url(#b580bf5724)"><g transform="matrix(1,0,0,1,0,-0.000000000000056843)"><g id="714e083e34" clip-path="url(#e67a4c5c0d)"><g clip-rule="nonzero" clip-path="url(#4e4b1c6123)"><path style=" stroke:none;fill-rule:nonzero;fill:#3c4862;fill-opacity:1;" d="M 0.972656 0.582031 L 124.691406 0.582031 L 124.691406 122.871094 L 0.972656 122.871094 Z M 0.972656 0.582031 "/></g></g></g></g></g><mask id="c13c80a8bd"><g filter="url(#558ab7a7a4)"><rect x="0" width="1024.5" y="0" height="576" style="fill:#000000;fill-opacity:0.1;stroke:none;"/></g></mask></g></g><g clip-rule="nonzero" clip-path="url(#e7f7668481)"><g mask="url(#2c49d35d23)" transform="matrix(1,0,0,1,778,-0.000000000000058398)"><g clip-path="url(#3ded7febf7)"><g clip-rule="nonzero" clip-path="url(#9462ab682e)"><g transform="matrix(1,0,0,1,0,-0.000000000000058398)"><g id="7d61d615de" clip-path="url(#132d71d65f)"><g clip-rule="nonzero" clip-path="url(#4467aaedaf)"><path style=" stroke:none;fill-rule:nonzero;fill:#3c4862;fill-opacity:1;" d="M 0.96875 -34.492188 L 291.859375 -34.492188 L 291.859375 253.03125 L 0.96875 253.03125 Z M 0.96875 -34.492188 "/></g></g></g></g></g><mask id="2c49d35d23"><g filter="url(#558ab7a7a4)"><rect x="0" width="1024.5" y="0" height="576" style="fill:#000000;fill-opacity:0.1;stroke:none;"/></g></mask></g></g><g mask="url(#983995dfab)" transform="matrix(1,0,0,1,0,39)"><g clip-path="url(#88d604e227)"><g clip-rule="nonzero" clip-path="url(#ad46a1e983)"><g transform="matrix(1,0,0,1,0,-0.000000000000056843)"><g id="c5f76b82ce" clip-path="url(#6b2664a68c)"><g clip-rule="nonzero" clip-path="url(#37648d9e10)"><path style=" stroke:none;fill-rule:nonzero;fill:#3c4862;fill-opacity:1;" d="M -88.058594 0.253906 L 202.828125 0.253906 L 202.828125 287.777344 L -88.058594 287.777344 Z M -88.058594 0.253906 "/></g></g></g></g></g><mask id="983995dfab"><g filter="url(#558ab7a7a4)"><rect x="0" width="1024.5" y="0" height="576" style="fill:#000000;fill-opacity:0.1;stroke:none;"/></g></mask></g><g clip-rule="nonzero" clip-path="url(#08c4d45a15)"><g mask="url(#a677496005)" transform="matrix(1,0,0,1,101,493)"><g clip-path="url(#fa270c028c)"><g clip-rule="nonzero" clip-path="url(#7fd892520d)"><g transform="matrix(1,0,0,1,0,-0.000000000000056843)"><g id="80d78204bc" clip-path="url(#13fbf6bca6)"><g clip-rule="nonzero" clip-path="url(#2bf6103df8)"><path style=" stroke:none;fill-rule:nonzero;fill:#3c4862;fill-opacity:1;" d="M 0.550781 0.234375 L 167.734375 0.234375 L 167.734375 165.484375 L 0.550781 165.484375 Z M 0.550781 0.234375 "/></g></g></g></g></g><mask id="a677496005"><g filter="url(#558ab7a7a4)"><rect x="0" width="1024.5" y="0" height="576" style="fill:#000000;fill-opacity:0.1;stroke:none;"/></g></mask></g></g><g mask="url(#110f6b3f12)" transform="matrix(1,0,0,1,261,147)"><g clip-path="url(#9f84c5ecb6)"><g clip-rule="nonzero" clip-path="url(#133977a405)"><g transform="matrix(1,0,0,1,1,1)"><g id="9604c2e0d6" clip-path="url(#2d6597ff98)"><g clip-rule="nonzero" clip-path="url(#984b9980b6)"><path style=" stroke:none;fill-rule:nonzero;fill:#3c4862;fill-opacity:1;" d="M 0.0820312 0.0195312 L 58.859375 0.0195312 L 58.859375 58.109375 L 0.0820312 58.109375 Z M 0.0820312 0.0195312 "/></g></g></g></g></g><mask id="110f6b3f12"><g filter="url(#558ab7a7a4)"><rect x="0" width="1024.5" y="0" height="576" style="fill:#000000;fill-opacity:0.1;stroke:none;"/></g></mask></g><g mask="url(#e1148bb0ad)" transform="matrix(1,0,0,1,320,370)"><g clip-path="url(#0773f9f815)"><g clip-rule="nonzero" clip-path="url(#b8b0a0d4a2)"><g transform="matrix(1,0,0,1,0,-0.000000000000113687)"><g id="5e3e11f13b" clip-path="url(#01de08657d)"><g clip-rule="nonzero" clip-path="url(#bd25079c28)"><path style=" stroke:none;fill-rule:nonzero;fill:#3c4862;fill-opacity:1;" d="M 0.933594 0.917969 L 59.707031 0.917969 L 59.707031 59.011719 L 0.933594 59.011719 Z M 0.933594 0.917969 "/></g></g></g></g></g><mask id="e1148bb0ad"><g filter="url(#558ab7a7a4)"><rect x="0" width="1024.5" y="0" height="576" style="fill:#000000;fill-opacity:0.1;stroke:none;"/></g></mask></g><g clip-rule="nonzero" clip-path="url(#b0880169cd)"><g mask="url(#d1635fdc35)" transform="matrix(1,0,0,1,457,-0.000000000000058398)"><g clip-path="url(#e2752bf411)"><g clip-rule="nonzero" clip-path="url(#4887dd23d0)"><g transform="matrix(1,0,0,1,0,-0.000000000000058398)"><g id="832c293220" clip-path="url(#5b4c6673d6)"><g clip-rule="nonzero" clip-path="url(#a6e68b9e06)"><path style=" stroke:none;fill-rule:nonzero;fill:#3c4862;fill-opacity:1;" d="M 0.300781 -23.585938 L 103.449219 -23.585938 L 103.449219 78.367188 L 0.300781 78.367188 Z M 0.300781 -23.585938 "/></g></g></g></g></g><mask id="d1635fdc35"><g filter="url(#558ab7a7a4)"><rect x="0" width="1024.5" y="0" height="576" style="fill:#000000;fill-opacity:0.1;stroke:none;"/></g></mask></g></g></g></svg>