<svg xmlns="http://www.w3.org/2000/svg" xmlns:xlink="http://www.w3.org/1999/xlink" width="1366" zoomAndPan="magnify" viewBox="0 0 1024.5 576" height="768" preserveAspectRatio="xMidYMid meet" version="1.2"><defs><filter x="0%" y="0%" width="100%" filterUnits="objectBoundingBox" id="dbcd5c309c" height="100%"><feColorMatrix values="0 0 0 0 1 0 0 0 0 1 0 0 0 0 1 0 0 0 1 0" type="matrix" in="SourceGraphic"/></filter><clipPath id="5bcbefc04b"><path d="M 0.351562 0.875 L 63.867188 0.875 L 63.867188 63.578125 L 0.351562 63.578125 Z M 0.351562 0.875 "/></clipPath><clipPath id="fff3f8b427"><path d="M 0.351562 0.875 L 63.867188 0.875 L 63.867188 63.578125 L 0.351562 63.578125 Z M 0.351562 0.875 "/></clipPath><clipPath id="b46ec8cbea"><rect x="0" width="64" y="0" height="64"/></clipPath><clipPath id="df660941a6"><rect x="0" width="65" y="0" height="64"/></clipPath><clipPath id="73c912d80c"><path d="M 0.363281 0.183594 L 144.800781 0.183594 L 144.800781 142.769531 L 0.363281 142.769531 Z M 0.363281 0.183594 "/></clipPath><clipPath id="192063f36e"><path d="M 0.363281 0.183594 L 144.800781 0.183594 L 144.800781 142.769531 L 0.363281 142.769531 Z M 0.363281 0.183594 "/></clipPath><clipPath id="9e2a2a748e"><rect x="0" width="145" y="0" height="143"/></clipPath><clipPath id="d5e7144c44"><rect x="0" width="146" y="0" height="143"/></clipPath><clipPath id="2228d0022a"><path d="M 690 484 L 816 484 L 816 575.859375 L 690 575.859375 Z M 690 484 "/></clipPath><clipPath id="42fdea6138"><path d="M 0.972656 0.582031 L 124.851562 0.582031 L 124.851562 91.859375 L 0.972656 91.859375 Z M 0.972656 0.582031 "/></clipPath><clipPath id="d80e1de1ad"><path d="M 0.972656 0.582031 L 124.851562 0.582031 L 124.851562 91.859375 L 0.972656 91.859375 Z M 0.972656 0.582031 "/></clipPath><clipPath id="317cd5f71d"><rect x="0" width="125" y="0" height="92"/></clipPath><clipPath id="856550152f"><rect x="0" width="126" y="0" height="92"/></clipPath><clipPath id="ad114c77e5"><path d="M 778 0.140625 L 1024 0.140625 L 1024 254 L 778 254 Z M 778 0.140625 "/></clipPath><clipPath id="156dcbef4e"><path d="M 0.96875 0.140625 L 246 0.140625 L 246 253.03125 L 0.96875 253.03125 Z M 0.96875 0.140625 "/></clipPath><clipPath id="3bcf5bdc66"><path d="M 0.96875 0.140625 L 246 0.140625 L 246 253.03125 L 0.96875 253.03125 Z M 0.96875 0.140625 "/></clipPath><clipPath id="b2f0256370"><rect x="0" width="246" y="0" height="254"/></clipPath><clipPath id="d5fecb55dc"><rect x="0" width="246" y="0" height="254"/></clipPath><clipPath id="97f4180102"><path d="M 0 0.253906 L 203.203125 0.253906 L 203.203125 287.777344 L 0 287.777344 Z M 0 0.253906 "/></clipPath><clipPath id="c08e8e6ceb"><path d="M 0 0.253906 L 203 0.253906 L 203 287.777344 L 0 287.777344 Z M 0 0.253906 "/></clipPath><clipPath id="9b72f07374"><rect x="0" width="204" y="0" height="288"/></clipPath><clipPath id="258cb0e57f"><rect x="0" width="205" y="0" height="288"/></clipPath><clipPath id="ede6d50e90"><path d="M 101 493 L 270 493 L 270 575.859375 L 101 575.859375 Z M 101 493 "/></clipPath><clipPath id="6ab8bc4879"><path d="M 0.550781 0.234375 L 167.949219 0.234375 L 167.949219 82.859375 L 0.550781 82.859375 Z M 0.550781 0.234375 "/></clipPath><clipPath id="8057cd7f23"><path d="M 0.550781 0.234375 L 167.949219 0.234375 L 167.949219 82.859375 L 0.550781 82.859375 Z M 0.550781 0.234375 "/></clipPath><clipPath id="051b54dc12"><rect x="0" width="168" y="0" height="83"/></clipPath><clipPath id="c4832a019d"><rect x="0" width="169" y="0" height="83"/></clipPath><clipPath id="47269dfa1d"><path d="M 1.082031 1.019531 L 59.933594 1.019531 L 59.933594 59.109375 L 1.082031 59.109375 Z M 1.082031 1.019531 "/></clipPath><clipPath id="a0537d426f"><path d="M 0.0820312 0.0195312 L 58.933594 0.0195312 L 58.933594 58.109375 L 0.0820312 58.109375 Z M 0.0820312 0.0195312 "/></clipPath><clipPath id="2a92d2c853"><rect x="0" width="59" y="0" height="59"/></clipPath><clipPath id="c57219019b"><rect x="0" width="61" y="0" height="60"/></clipPath><clipPath id="69353edd6e"><path d="M 0.933594 0.917969 L 59.78125 0.917969 L 59.78125 59.011719 L 0.933594 59.011719 Z M 0.933594 0.917969 "/></clipPath><clipPath id="58582c1629"><path d="M 0.933594 0.917969 L 59.78125 0.917969 L 59.78125 59.011719 L 0.933594 59.011719 Z M 0.933594 0.917969 "/></clipPath><clipPath id="ca7a2eadfa"><rect x="0" width="60" y="0" height="60"/></clipPath><clipPath id="6adc060f4a"><rect x="0" width="60" y="0" height="60"/></clipPath><clipPath id="2f73c7c6b1"><path d="M 457 0.140625 L 562 0.140625 L 562 79 L 457 79 Z M 457 0.140625 "/></clipPath><clipPath id="f0312f7b71"><path d="M 0.300781 0.140625 L 103.582031 0.140625 L 103.582031 78.367188 L 0.300781 78.367188 Z M 0.300781 0.140625 "/></clipPath><clipPath id="66a5a76a16"><path d="M 0.300781 0.140625 L 103.582031 0.140625 L 103.582031 78.367188 L 0.300781 78.367188 Z M 0.300781 0.140625 "/></clipPath><clipPath id="fe84245f01"><rect x="0" width="104" y="0" height="79"/></clipPath><clipPath id="26e6d66491"><rect x="0" width="105" y="0" height="79"/></clipPath></defs><g id="51f9216f19"><g mask="url(#509480bf4a)" transform="matrix(1,0,0,1,917,472)"><g clip-path="url(#df660941a6)"><g clip-rule="nonzero" clip-path="url(#5bcbefc04b)"><g transform="matrix(1,0,0,1,0,-0.000000000000056843)"><g id="8b08bc5fee" clip-path="url(#b46ec8cbea)"><g clip-rule="nonzero" clip-path="url(#fff3f8b427)"><path style=" stroke:none;fill-rule:nonzero;fill:#ff484b;fill-opacity:1;" d="M 0.351562 0.875 L 63.789062 0.875 L 63.789062 63.578125 L 0.351562 63.578125 Z M 0.351562 0.875 "/></g></g></g></g></g><mask id="509480bf4a"><g filter="url(#dbcd5c309c)"><rect x="0" width="1024.5" y="0" height="576" style="fill:#000000;fill-opacity:0.1;stroke:none;"/></g></mask></g><g mask="url(#bee166153f)" transform="matrix(1,0,0,1,488,268)"><g clip-path="url(#d5e7144c44)"><g clip-rule="nonzero" clip-path="url(#73c912d80c)"><g transform="matrix(1,0,0,1,0,-0.000000000000056843)"><g id="731f1ac9b3" clip-path="url(#9e2a2a748e)"><g clip-rule="nonzero" clip-path="url(#192063f36e)"><path style=" stroke:none;fill-rule:nonzero;fill:#ff484b;fill-opacity:1;" d="M 0.363281 0.183594 L 144.617188 0.183594 L 144.617188 142.769531 L 0.363281 142.769531 Z M 0.363281 0.183594 "/></g></g></g></g></g><mask id="bee166153f"><g filter="url(#dbcd5c309c)"><rect x="0" width="1024.5" y="0" height="576" style="fill:#000000;fill-opacity:0.1;stroke:none;"/></g></mask></g><g clip-rule="nonzero" clip-path="url(#2228d0022a)"><g mask="url(#d4cf87b3fb)" transform="matrix(1,0,0,1,690,484)"><g clip-path="url(#856550152f)"><g clip-rule="nonzero" clip-path="url(#42fdea6138)"><g transform="matrix(1,0,0,1,0,-0.000000000000056843)"><g id="ea8e6b9d10" clip-path="url(#317cd5f71d)"><g clip-rule="nonzero" clip-path="url(#d80e1de1ad)"><path style=" stroke:none;fill-rule:nonzero;fill:#ff484b;fill-opacity:1;" d="M 0.972656 0.582031 L 124.691406 0.582031 L 124.691406 122.871094 L 0.972656 122.871094 Z M 0.972656 0.582031 "/></g></g></g></g></g><mask id="d4cf87b3fb"><g filter="url(#dbcd5c309c)"><rect x="0" width="1024.5" y="0" height="576" style="fill:#000000;fill-opacity:0.1;stroke:none;"/></g></mask></g></g><g clip-rule="nonzero" clip-path="url(#ad114c77e5)"><g mask="url(#560ee2321b)" transform="matrix(1,0,0,1,778,-0.000000000000058398)"><g clip-path="url(#d5fecb55dc)"><g clip-rule="nonzero" clip-path="url(#156dcbef4e)"><g transform="matrix(1,0,0,1,0,-0.000000000000058398)"><g id="b1ba618f55" clip-path="url(#b2f0256370)"><g clip-rule="nonzero" clip-path="url(#3bcf5bdc66)"><path style=" stroke:none;fill-rule:nonzero;fill:#ff484b;fill-opacity:1;" d="M 0.96875 -34.492188 L 291.859375 -34.492188 L 291.859375 253.03125 L 0.96875 253.03125 Z M 0.96875 -34.492188 "/></g></g></g></g></g><mask id="560ee2321b"><g filter="url(#dbcd5c309c)"><rect x="0" width="1024.5" y="0" height="576" style="fill:#000000;fill-opacity:0.1;stroke:none;"/></g></mask></g></g><g mask="url(#d9e7d40a7b)" transform="matrix(1,0,0,1,0,39)"><g clip-path="url(#258cb0e57f)"><g clip-rule="nonzero" clip-path="url(#97f4180102)"><g transform="matrix(1,0,0,1,0,-0.000000000000056843)"><g id="3f6f0d831c" clip-path="url(#9b72f07374)"><g clip-rule="nonzero" clip-path="url(#c08e8e6ceb)"><path style=" stroke:none;fill-rule:nonzero;fill:#ff484b;fill-opacity:1;" d="M -88.058594 0.253906 L 202.828125 0.253906 L 202.828125 287.777344 L -88.058594 287.777344 Z M -88.058594 0.253906 "/></g></g></g></g></g><mask id="d9e7d40a7b"><g filter="url(#dbcd5c309c)"><rect x="0" width="1024.5" y="0" height="576" style="fill:#000000;fill-opacity:0.1;stroke:none;"/></g></mask></g><g clip-rule="nonzero" clip-path="url(#ede6d50e90)"><g mask="url(#c7205383b6)" transform="matrix(1,0,0,1,101,493)"><g clip-path="url(#c4832a019d)"><g clip-rule="nonzero" clip-path="url(#6ab8bc4879)"><g transform="matrix(1,0,0,1,0,-0.000000000000056843)"><g id="62eaca4215" clip-path="url(#051b54dc12)"><g clip-rule="nonzero" clip-path="url(#8057cd7f23)"><path style=" stroke:none;fill-rule:nonzero;fill:#ff484b;fill-opacity:1;" d="M 0.550781 0.234375 L 167.734375 0.234375 L 167.734375 165.484375 L 0.550781 165.484375 Z M 0.550781 0.234375 "/></g></g></g></g></g><mask id="c7205383b6"><g filter="url(#dbcd5c309c)"><rect x="0" width="1024.5" y="0" height="576" style="fill:#000000;fill-opacity:0.1;stroke:none;"/></g></mask></g></g><g mask="url(#7423d8633e)" transform="matrix(1,0,0,1,261,147)"><g clip-path="url(#c57219019b)"><g clip-rule="nonzero" clip-path="url(#47269dfa1d)"><g transform="matrix(1,0,0,1,1,1)"><g id="f530ff34cc" clip-path="url(#2a92d2c853)"><g clip-rule="nonzero" clip-path="url(#a0537d426f)"><path style=" stroke:none;fill-rule:nonzero;fill:#ff484b;fill-opacity:1;" d="M 0.0820312 0.0195312 L 58.859375 0.0195312 L 58.859375 58.109375 L 0.0820312 58.109375 Z M 0.0820312 0.0195312 "/></g></g></g></g></g><mask id="7423d8633e"><g filter="url(#dbcd5c309c)"><rect x="0" width="1024.5" y="0" height="576" style="fill:#000000;fill-opacity:0.1;stroke:none;"/></g></mask></g><g mask="url(#aa53f6b692)" transform="matrix(1,0,0,1,320,370)"><g clip-path="url(#6adc060f4a)"><g clip-rule="nonzero" clip-path="url(#69353edd6e)"><g transform="matrix(1,0,0,1,0,-0.000000000000113687)"><g id="86b75a6a30" clip-path="url(#ca7a2eadfa)"><g clip-rule="nonzero" clip-path="url(#58582c1629)"><path style=" stroke:none;fill-rule:nonzero;fill:#ff484b;fill-opacity:1;" d="M 0.933594 0.917969 L 59.707031 0.917969 L 59.707031 59.011719 L 0.933594 59.011719 Z M 0.933594 0.917969 "/></g></g></g></g></g><mask id="aa53f6b692"><g filter="url(#dbcd5c309c)"><rect x="0" width="1024.5" y="0" height="576" style="fill:#000000;fill-opacity:0.1;stroke:none;"/></g></mask></g><g clip-rule="nonzero" clip-path="url(#2f73c7c6b1)"><g mask="url(#1ae6eb0d84)" transform="matrix(1,0,0,1,457,-0.000000000000058398)"><g clip-path="url(#26e6d66491)"><g clip-rule="nonzero" clip-path="url(#f0312f7b71)"><g transform="matrix(1,0,0,1,0,-0.000000000000058398)"><g id="232ab4b3f7" clip-path="url(#fe84245f01)"><g clip-rule="nonzero" clip-path="url(#66a5a76a16)"><path style=" stroke:none;fill-rule:nonzero;fill:#ff484b;fill-opacity:1;" d="M 0.300781 -23.585938 L 103.449219 -23.585938 L 103.449219 78.367188 L 0.300781 78.367188 Z M 0.300781 -23.585938 "/></g></g></g></g></g><mask id="1ae6eb0d84"><g filter="url(#dbcd5c309c)"><rect x="0" width="1024.5" y="0" height="576" style="fill:#000000;fill-opacity:0.1;stroke:none;"/></g></mask></g></g></g></svg>