<svg xmlns="http://www.w3.org/2000/svg" xmlns:xlink="http://www.w3.org/1999/xlink" width="350" zoomAndPan="magnify" viewBox="0 0 262.5 262.500001" height="350" preserveAspectRatio="xMidYMid meet" version="1.2"><defs><clipPath id="7ffed43b11"><path d="M 32.585938 3 L 220 3 L 220 260 L 32.585938 260 Z M 32.585938 3 "/></clipPath><clipPath id="d2c61118ff"><path d="M 153.484375 116.335938 L 163.652344 116.335938 L 163.652344 126.503906 L 153.484375 126.503906 Z M 153.484375 116.335938 "/></clipPath></defs><g id="def8f174b1"><path style=" stroke:none;fill-rule:nonzero;fill:#f8f8f8;fill-opacity:1;" d="M 50.496094 164.691406 C 51.367188 171.78125 57.429688 178.078125 64.859375 182.414062 C 71.753906 186.433594 76.941406 188.5 76.941406 188.5 C 76.941406 188.5 72.59375 198.429688 67.351562 208.34375 C 63.527344 215.585938 59.128906 223.183594 54.203125 226.144531 C 48.136719 229.789062 45.183594 233.078125 45.488281 238.9375 C 46.179688 252.203125 67.785156 250.292969 67.785156 250.292969 C 67.785156 250.292969 69.140625 254 72.171875 255.957031 C 81.402344 261.925781 94.605469 258.582031 105.503906 251.796875 C 112.402344 247.5 117.210938 242.679688 122.230469 235.503906 C 123.355469 233.894531 124.644531 231 125.765625 230.410156 C 129.816406 228.28125 134.460938 224.445312 137.644531 222.085938 C 136.515625 223.914062 133.058594 232.527344 141.363281 237.78125 C 153.546875 245.492188 165.082031 238.261719 177.375 218.753906 C 181.007812 212.988281 186.863281 201.457031 196.714844 184.960938 C 200.992188 177.792969 206.675781 170.824219 209.582031 166.753906 C 216.835938 156.597656 229.421875 134.105469 208.273438 101.183594 C 203.148438 93.203125 195.789062 88.714844 193.523438 85.804688 C 192.546875 84.550781 185.296875 58.992188 165.703125 36.886719 C 139.488281 7.3125 97.195312 2.414062 82.417969 3.894531 C 59.390625 6.199219 53.195312 16.265625 53.851562 23.367188 C 54.929688 35.058594 71.582031 32.433594 80.101562 28.351562 C 87.566406 24.777344 97.195312 26.621094 103.617188 27.945312 C 128.773438 33.144531 145.398438 48.492188 151.046875 55.710938 C 156.625 62.835938 164.394531 80.929688 164.394531 80.929688 C 164.394531 80.929688 153.0625 80.316406 137.496094 89.179688 C 119.320312 99.535156 103.683594 121.316406 103.683594 121.316406 C 101.832031 120.902344 93.234375 119.800781 90 119.628906 C 90 119.628906 81.296875 108.722656 76.972656 109.003906 C 74.585938 109.160156 67.394531 117.222656 62.933594 126.136719 C 58.511719 134.976562 51.476562 144.261719 50.371094 156.414062 C 50.261719 157.597656 50.207031 159.832031 50.230469 161.210938 C 50.246094 162.375 50.457031 164.351562 50.496094 164.691406 Z M 50.496094 164.691406 "/><path style=" stroke:none;fill-rule:evenodd;fill:#ebc3c3;fill-opacity:1;" d="M 77.273438 111.847656 C 79.3125 111.835938 84.480469 118.648438 83.46875 120.027344 C 82.457031 121.402344 72.238281 121.46875 71.207031 120.105469 C 70.171875 118.746094 75.222656 111.859375 77.273438 111.847656 Z M 134.15625 121.890625 C 136.230469 122.652344 138.507812 131.035156 136.886719 131.957031 C 135.265625 132.875 124.898438 129.070312 124.441406 127.394531 C 123.984375 125.714844 132.082031 121.128906 134.15625 121.890625 Z M 134.15625 121.890625 "/><g clip-rule="nonzero" clip-path="url(#7ffed43b11)"><path style=" stroke:none;fill-rule:nonzero;fill:#4c4c4c;fill-opacity:1;" d="M 50.503906 164.691406 C 51.371094 171.78125 57.4375 178.078125 64.863281 182.414062 C 71.761719 186.429688 76.945312 188.5 76.945312 188.5 C 76.945312 188.5 72.597656 198.429688 67.359375 208.34375 C 63.53125 215.585938 59.136719 223.183594 54.207031 226.144531 C 48.140625 229.789062 45.191406 233.082031 45.492188 238.933594 C 46.183594 252.207031 67.789062 250.292969 67.789062 250.292969 C 67.789062 250.292969 69.144531 254 72.175781 255.960938 C 81.40625 261.925781 94.609375 258.585938 105.503906 251.792969 C 112.410156 247.5 117.21875 242.679688 122.234375 235.503906 C 123.359375 233.898438 124.652344 231 125.769531 230.410156 C 129.824219 228.28125 134.464844 224.445312 137.648438 222.085938 C 136.519531 223.914062 133.0625 232.53125 141.371094 237.785156 C 153.554688 245.492188 165.085938 238.265625 177.375 218.757812 C 181.011719 212.984375 186.871094 201.457031 196.714844 184.960938 C 200.996094 177.792969 206.683594 170.824219 209.589844 166.757812 C 216.839844 156.601562 229.425781 134.105469 208.277344 101.179688 C 203.15625 93.203125 195.792969 88.714844 193.527344 85.804688 C 192.554688 84.554688 185.300781 58.992188 165.707031 36.886719 C 139.492188 7.308594 97.199219 2.410156 82.425781 3.894531 C 59.390625 6.199219 53.203125 16.261719 53.855469 23.367188 C 54.933594 35.058594 71.589844 32.433594 80.105469 28.351562 C 87.570312 24.777344 97.199219 26.617188 103.621094 27.949219 C 128.78125 33.144531 145.402344 48.492188 151.050781 55.710938 C 156.628906 62.835938 164.398438 80.929688 164.398438 80.929688 C 164.398438 80.929688 152.851562 79.738281 137.285156 88.609375 C 119.109375 98.964844 103.359375 120.699219 103.359375 120.699219 C 101.503906 120.285156 93.722656 119.214844 90.492188 119.039062 C 90.492188 119.039062 81.203125 108.152344 76.875 108.375 C 72.53125 108.59375 52.347656 135.972656 50.371094 156.414062 C 48.292969 155.359375 46.054688 154.488281 43.746094 153.816406 C 41.964844 153.292969 40.144531 152.878906 38.320312 152.585938 C 36.441406 152.28125 34.570312 152.105469 32.746094 152.015625 C 32.664062 152.011719 32.589844 152.066406 32.582031 152.144531 C 32.566406 152.21875 32.625 152.285156 32.707031 152.289062 C 34.496094 152.484375 36.320312 152.792969 38.160156 153.179688 C 39.929688 153.546875 41.707031 154.003906 43.445312 154.554688 C 45.835938 155.316406 48.160156 156.253906 50.296875 157.40625 C 50.238281 158.335938 50.207031 159.285156 50.210938 160.25 C 48.023438 159.507812 45.691406 159 43.308594 158.707031 C 41.570312 158.496094 39.804688 158.394531 38.058594 158.402344 C 36.269531 158.414062 34.503906 158.546875 32.792969 158.753906 C 32.707031 158.761719 32.644531 158.828125 32.648438 158.902344 C 32.652344 158.980469 32.722656 159.035156 32.804688 159.027344 C 34.503906 158.929688 36.25 158.933594 38.015625 159.007812 C 39.722656 159.078125 41.445312 159.226562 43.144531 159.476562 C 45.59375 159.835938 48 160.394531 50.230469 161.210938 C 50.261719 162.046875 50.3125 162.894531 50.398438 163.753906 C 47.867188 163.289062 45.195312 163.175781 42.507812 163.359375 C 40.839844 163.476562 39.167969 163.707031 37.535156 164.039062 C 35.871094 164.382812 34.253906 164.832031 32.695312 165.339844 C 32.613281 165.367188 32.570312 165.441406 32.589844 165.515625 C 32.613281 165.585938 32.695312 165.625 32.773438 165.605469 C 34.34375 165.203125 35.972656 164.886719 37.625 164.632812 C 39.246094 164.386719 40.882812 164.214844 42.515625 164.140625 C 45.25 164.011719 47.960938 164.15625 50.503906 164.691406 Z M 143.277344 177.222656 C 150.296875 163.363281 143.972656 147.074219 142.75 137.691406 C 142.292969 134.199219 139.195312 120.636719 135.921875 118.703125 C 133.203125 117.097656 118.8125 125.09375 118.8125 125.09375 C 115.902344 123.699219 108.3125 121.367188 104.703125 120.980469 C 110.085938 113.515625 124.945312 96.859375 138.152344 89.496094 C 142.496094 87.074219 148.347656 84.339844 154.117188 83.085938 C 160.28125 81.746094 163.625 81.726562 169.792969 82.351562 C 175.773438 82.957031 172.160156 82.015625 170.996094 81.78125 C 169.40625 81.453125 165.882812 80.769531 165.882812 80.769531 C 165.882812 80.769531 158.59375 62.652344 152.464844 55.210938 C 143.359375 44.164062 134.777344 38.277344 119.46875 31.339844 C 117.425781 30.40625 93.671875 20.625 79.269531 27.011719 C 52.535156 38.867188 48.136719 16.617188 66.714844 9.199219 C 89.652344 0.0390625 114.34375 8.53125 125.527344 12.214844 C 157 22.582031 171.765625 46.523438 177.972656 56.515625 C 188.246094 73.050781 191.644531 86.339844 191.644531 86.339844 C 191.644531 86.339844 208.890625 98.136719 215.542969 119.835938 C 219.683594 133.351562 220.214844 143.90625 212.125 159.886719 C 208.375 167.285156 199.671875 175.132812 191.746094 190.070312 C 178.253906 215.519531 172.015625 225.078125 167.082031 230.152344 C 161.613281 235.78125 155.238281 241.878906 145.375 238.292969 C 136.171875 234.953125 136.070312 226.496094 138.996094 222.191406 C 142.003906 217.773438 149.789062 210.761719 154.019531 205.832031 C 158.386719 200.746094 162.605469 197.359375 167.695312 189.796875 C 169.085938 187.726562 171.539062 184.207031 170.277344 185.390625 C 168.308594 187.242188 161.472656 196.082031 157.28125 200.632812 C 150.585938 207.914062 143.683594 215.144531 139.246094 218.964844 C 134.058594 223.417969 128.066406 227.976562 126.175781 228.855469 C 127.324219 226.734375 128.273438 224.203125 129.082031 221.628906 C 129.976562 218.757812 130.46875 216.597656 130.980469 213.738281 C 131.089844 213.132812 130.816406 213.078125 130.796875 213.148438 C 130.113281 215.203125 129.269531 217.3125 128.28125 220.15625 C 127.765625 221.632812 126.910156 223.503906 126.175781 225.214844 C 125.035156 227.855469 122.140625 234.945312 113.71875 243.40625 C 108.109375 249.039062 95.300781 257.058594 86.234375 257.539062 C 80.566406 257.84375 70.609375 256.671875 68.984375 249.136719 C 68.015625 244.628906 69.972656 240.03125 75.402344 236.550781 C 83.648438 231.269531 90.09375 221.898438 93.414062 211.558594 C 94.730469 207.46875 98.210938 193.207031 98.210938 193.207031 C 98.210938 193.207031 104.199219 193.742188 110.03125 193.796875 C 117.53125 193.855469 128.550781 193.117188 136.902344 185.574219 C 137.894531 186.070312 138.867188 186.621094 139.8125 187.207031 C 141.226562 188.085938 142.582031 189.050781 143.875 190.066406 C 145.199219 191.105469 146.453125 192.195312 147.605469 193.320312 C 147.660156 193.382812 147.753906 193.386719 147.824219 193.339844 C 147.886719 193.285156 147.894531 193.195312 147.835938 193.132812 C 146.769531 191.917969 145.605469 190.71875 144.335938 189.597656 C 143.082031 188.496094 141.730469 187.464844 140.3125 186.535156 C 139.433594 185.957031 138.527344 185.421875 137.59375 184.929688 C 138.476562 184.078125 139.328125 183.144531 140.132812 182.125 C 140.832031 182.347656 141.519531 182.589844 142.203125 182.84375 C 143.882812 183.46875 145.519531 184.199219 147.09375 184.988281 C 148.722656 185.800781 150.28125 186.664062 151.738281 187.59375 C 151.8125 187.636719 151.910156 187.625 151.957031 187.5625 C 152.011719 187.5 151.996094 187.410156 151.921875 187.359375 C 150.527344 186.335938 149.03125 185.335938 147.433594 184.4375 C 145.878906 183.558594 144.238281 182.773438 142.542969 182.09375 C 141.933594 181.847656 141.316406 181.613281 140.691406 181.398438 C 140.78125 181.273438 140.878906 181.144531 140.972656 181.019531 C 141.675781 180.035156 142.300781 179.035156 142.859375 178.023438 C 143.59375 178.136719 144.324219 178.269531 145.054688 178.417969 C 146.960938 178.804688 148.835938 179.289062 150.65625 179.847656 C 152.542969 180.421875 154.375 181.066406 156.097656 181.785156 C 156.171875 181.820312 156.269531 181.789062 156.304688 181.71875 C 156.34375 181.648438 156.308594 181.5625 156.238281 181.527344 C 154.546875 180.699219 152.757812 179.917969 150.886719 179.25 C 149.070312 178.601562 147.179688 178.054688 145.25 177.625 C 144.597656 177.472656 143.9375 177.34375 143.277344 177.222656 Z M 54.609375 227.5 C 58.234375 225.695312 63.347656 218.730469 66.746094 212.597656 C 72.816406 201.648438 78.070312 188.839844 78.070312 188.839844 C 85.277344 190.890625 88.34375 191.894531 97.035156 193.023438 C 97.035156 193.023438 93.121094 208.546875 90.644531 214.808594 C 87.257812 223.371094 80.402344 232.46875 75.363281 235.289062 C 65.4375 240.84375 67.578125 249.203125 67.578125 249.203125 C 58.378906 250.214844 47.574219 246.460938 46.84375 240.09375 C 46.539062 237.363281 46.769531 231.394531 54.609375 227.5 Z M 51.605469 157.074219 C 52.667969 143.949219 61 130.480469 63.570312 126.117188 C 67.707031 119.101562 74.046875 110.84375 76.703125 110.199219 C 79.902344 109.425781 89.644531 120.164062 89.644531 120.164062 C 98.328125 120.589844 112.691406 123.378906 118.925781 126.34375 C 118.925781 126.34375 131.589844 119.457031 135.160156 120.191406 C 136.75 120.519531 139.984375 129.527344 141.1875 137.242188 C 142.710938 147.003906 149.144531 163.625 141.875 176.996094 C 139.070312 176.582031 136.238281 176.449219 133.480469 176.632812 C 133.195312 176.652344 132.980469 176.882812 133.003906 177.144531 C 133.03125 177.410156 133.28125 177.605469 133.5625 177.582031 C 136.140625 177.378906 138.785156 177.484375 141.410156 177.816406 C 140.851562 178.757812 140.21875 179.683594 139.511719 180.589844 C 139.425781 180.707031 139.332031 180.820312 139.238281 180.929688 C 136.8125 180.203125 134.324219 179.722656 131.851562 179.554688 C 131.570312 179.535156 131.320312 179.734375 131.300781 179.996094 C 131.28125 180.257812 131.5 180.488281 131.789062 180.503906 C 134.074219 180.632812 136.371094 181.046875 138.628906 181.675781 C 137.847656 182.597656 137.042969 183.449219 136.207031 184.238281 C 134.488281 183.433594 132.714844 182.789062 130.90625 182.347656 C 130.625 182.28125 130.34375 182.433594 130.273438 182.6875 C 130.199219 182.945312 130.371094 183.207031 130.648438 183.273438 C 132.292969 183.648438 133.90625 184.210938 135.476562 184.90625 C 127.371094 192.046875 116.578125 193.429688 99.910156 192.023438 C 81.03125 190.425781 54.949219 180.320312 51.902344 165.035156 C 51.964844 165.046875 52.027344 165.066406 52.089844 165.085938 C 52.347656 165.15625 52.632812 165.023438 52.726562 164.78125 C 52.816406 164.539062 52.683594 164.285156 52.421875 164.210938 C 52.191406 164.148438 51.964844 164.089844 51.730469 164.035156 C 51.621094 163.265625 51.542969 162.492188 51.5 161.710938 C 51.933594 161.898438 52.367188 162.089844 52.789062 162.300781 C 53.023438 162.417969 53.328125 162.328125 53.46875 162.105469 C 53.605469 161.882812 53.523438 161.605469 53.285156 161.492188 C 52.691406 161.207031 52.082031 160.941406 51.460938 160.699219 C 51.441406 159.832031 51.460938 158.964844 51.511719 158.09375 C 52.042969 158.414062 52.5625 158.75 53.066406 159.101562 C 53.277344 159.246094 53.59375 159.195312 53.765625 158.996094 C 53.933594 158.789062 53.898438 158.503906 53.6875 158.359375 C 53.011719 157.902344 52.324219 157.480469 51.605469 157.074219 Z M 84.683594 173.074219 C 84.699219 172.152344 85.335938 168.824219 85.472656 168.515625 C 85.472656 168.515625 87.875 168.050781 87.910156 166.761719 C 87.9375 165.859375 82.09375 164.867188 81.929688 165.902344 C 81.707031 167.289062 83.621094 168.140625 83.621094 168.140625 C 83.515625 168.398438 82.65625 171.378906 82.835938 172.878906 C 82.976562 174.023438 84.671875 174.109375 84.683594 173.074219 Z M 111.546875 159.964844 C 115.140625 157.539062 118.953125 157.25 121.957031 158.3125 C 126.429688 159.890625 128.367188 163.792969 128.515625 164.886719 C 128.554688 165.121094 128.691406 165.828125 128.25 165.980469 C 127.941406 166.089844 127.433594 166 127.226562 165.539062 C 126.882812 164.773438 124.183594 161.214844 121.160156 160.347656 C 118.585938 159.605469 116.601562 159.734375 113.363281 161.257812 C 113.101562 161.382812 111.976562 161.933594 111.417969 161.242188 C 111.070312 160.8125 111.304688 160.121094 111.546875 159.964844 Z M 79.261719 154.039062 C 77.183594 150.300781 73.925781 148.375 70.746094 148.007812 C 66.015625 147.460938 62.46875 150.089844 61.824219 151 C 61.671875 151.191406 61.222656 151.761719 61.546875 152.09375 C 61.773438 152.328125 62.265625 152.464844 62.667969 152.148438 C 63.332031 151.613281 67.402344 149.621094 70.503906 150.167969 C 73.148438 150.640625 74.855469 151.621094 77.035156 154.394531 C 77.207031 154.621094 77.957031 155.605469 78.777344 155.230469 C 79.285156 155.003906 79.402344 154.289062 79.261719 154.039062 Z M 79.261719 154.039062 "/></g><g clip-rule="nonzero" clip-path="url(#d2c61118ff)"><path style=" stroke:none;fill-rule:nonzero;fill:#f8f8f8;fill-opacity:1;" d="M 153.484375 116.335938 L 163.652344 116.335938 L 163.652344 126.503906 L 153.484375 126.503906 Z M 153.484375 116.335938 "/></g></g></svg>